<?xml version="1.0" encoding="utf-8"?>
<!-- Generator: Adobe Illustrator 16.0.0, SVG Export Plug-In . SVG Version: 6.00 Build 0)  -->
<!DOCTYPE svg PUBLIC "-//W3C//DTD SVG 1.1//EN" "http://www.w3.org/Graphics/SVG/1.1/DTD/svg11.dtd">
<svg version="1.1" id="Capa_1" xmlns="http://www.w3.org/2000/svg" xmlns:xlink="http://www.w3.org/1999/xlink" x="0px" y="0px"
	 width="1132px" height="979.098px" viewBox="0 0 1132 979.098" enable-background="new 0 0 1132 979.098" xml:space="preserve">
<g>
</g>
<path display="none" fill="#FF6666" d="M-592,292.5c-1.935,0-1.935,3,0,3S-590.065,292.5-592,292.5z"/>
<g display="none">
	<g display="inline">
		<path fill="#FFFFFF" d="M-446,273.5c1.935,0,1.935-3,0-3S-447.935,273.5-446,273.5L-446,273.5z"/>
	</g>
</g>
<path fill="none" stroke="#FFFFFF" stroke-width="14" stroke-miterlimit="10" d="M353.607,1232.279"/>
<g>
	<g>
		<path d="M58.59,166.614c1.935,0,1.935-3,0-3S56.655,166.614,58.59,166.614L58.59,166.614z"/>
	</g>
</g>
<g>
	
		<image overflow="visible" opacity="0.75" width="910" height="297" xlink:href="10842A662440E5DE.png"  transform="matrix(1 0 0 1 208 322)">
	</image>
	<g>
		<g>
			<g>
				<g>
					<path fill="#FFFFFF" d="M1093.641,510.773c1.935,0,1.935-3,0-3S1091.706,510.773,1093.641,510.773L1093.641,510.773z"/>
				</g>
			</g>
			<g>
				<g>
					<path fill="none" stroke="#FD4E68" stroke-width="13" stroke-miterlimit="10" d="M485.079,337.254
						c-28.03-0.41-73.99,16.818-140.508,52.674c-47.049,25.358-86.334,50.405-87.983,51.458l-28.713,18.344l28.167,19.179
						c1.615,1.1,40.151,27.285,86.437,54.012c65.442,37.782,110.878,56.351,138.908,56.762
						c69.595,1.017,127.044-54.773,128.061-124.369C610.465,395.719,554.673,338.271,485.079,337.254z"/>
				</g>
			</g>
			<g>
				<g>
					<path fill="none" stroke="#FFFFFF" stroke-width="13" stroke-miterlimit="10" d="M511.159,465.312
						c1.02,69.596,58.47,125.386,128.062,124.369c28.031-0.411,73.467-18.979,138.909-56.762
						c46.284-26.727,84.821-52.912,86.436-54.012l28.168-19.179l-28.715-18.344c-1.648-1.053-40.933-26.1-87.981-51.458
						c-66.519-35.855-112.478-53.084-140.51-52.674C565.937,338.271,510.144,395.719,511.159,465.312z"/>
				</g>
			</g>
		</g>
	</g>
</g>
</svg>
